<?xml version="1.0" encoding="UTF-8"?>
<!DOCTYPE svg PUBLIC "-//W3C//DTD SVG 1.1//EN" "http://www.w3.org/Graphics/SVG/1.1/DTD/svg11.dtd">
<!-- Creator: CorelDRAW -->
<svg xmlns="http://www.w3.org/2000/svg" xml:space="preserve" width="338.667mm" height="338.667mm" version="1.1" style="shape-rendering:geometricPrecision; text-rendering:geometricPrecision; image-rendering:optimizeQuality; fill-rule:evenodd; clip-rule:evenodd"
viewBox="0 0 33866.66 33866.66"
 xmlns:xlink="http://www.w3.org/1999/xlink"
 xmlns:xodm="http://www.corel.com/coreldraw/odm/2003">
 <defs>
  <style type="text/css">
   <![CDATA[
    .str1 {stroke:#0D4A72;stroke-width:16.93;stroke-miterlimit:22.9256}
    .str2 {stroke:#E58E2D;stroke-width:16.93;stroke-miterlimit:22.9256}
    .str0 {stroke:black;stroke-width:7.62;stroke-miterlimit:22.9256}
    .fil1 {fill:none;fill-rule:nonzero}
    .fil2 {fill:#0D4A72}
    .fil3 {fill:#E58E2D}
    .fil0 {fill:black;fill-rule:nonzero}
   ]]>
  </style>
 </defs>
 <g id="Layer_x0020_1">
  <metadata id="CorelCorpID_0Corel-Layer"/>
  <path class="fil0" d="M1838.26 29058.56l0 442.7 1316.84 0c240.1,0 348.9,153.81 348.9,337.64 0,176.33 -101.3,348.91 -352.66,348.91l-911.65 0c-277.62,0 -397.68,116.3 -397.68,401.43l0 1001.69 442.7 0 0 -915.41c0,-45.01 22.51,-63.77 63.78,-63.77l787.85 0c592.76,0 814.11,-412.69 814.11,-795.36 0,-405.17 -243.86,-757.83 -814.11,-757.83l-1298.08 0z"/>
  <path id="_1" class="fil0" d="M4303.1 29610.05l0 382.67 1185.53 0c217.59,0 303.88,120.06 303.88,273.87l0 150.07 -941.67 0c-487.71,0 -667.79,210.09 -667.79,570.25 0,375.17 195.08,604.02 664.04,604.02l926.66 0c333.9,0 408.93,-112.55 408.93,-397.68l0 -930.41c0,-375.16 -195.08,-652.79 -690.3,-652.79l-1189.28 0zm1380.61 1594.46l-832.87 0c-198.83,0 -277.62,-93.79 -277.62,-240.11 0,-146.31 75.03,-232.6 285.13,-232.6l934.16 0 0 371.41c0,71.29 -30.01,101.3 -108.8,101.3z"/>
  <path id="_2" class="fil0" d="M6824.22 29610.05l0 382.67 1185.53 0c217.59,0 303.88,120.06 303.88,273.87l0 150.07 -941.67 0c-487.71,0 -667.79,210.09 -667.79,570.25 0,375.17 195.08,604.02 664.04,604.02l926.66 0c333.9,0 408.93,-112.55 408.93,-397.68l0 -930.41c0,-375.16 -195.08,-652.79 -690.3,-652.79l-1189.28 0zm1380.61 1594.46l-832.87 0c-198.83,0 -277.62,-93.79 -277.62,-240.11 0,-146.31 75.03,-232.6 285.13,-232.6l934.16 0 0 371.41c0,71.29 -30.01,101.3 -108.8,101.3z"/>
  <path id="_3" class="fil0" d="M8985.18 29610.05l206.34 1568.2c37.52,273.87 168.83,457.7 536.49,457.7 315.14,0 483.96,-135.06 547.74,-408.93l281.38 -1204.28c15,-67.53 67.53,-97.55 146.31,-97.55 75.03,0 131.31,30.02 146.31,97.55l266.37 1204.28c60.03,273.87 225.1,408.93 532.74,408.93 360.16,0 517.73,-183.83 555.24,-457.7l221.35 -1568.2 -431.44 0 -206.34 1545.69c-11.26,86.29 -45.02,127.55 -135.06,127.55 -90.04,0 -135.06,-37.51 -150.07,-108.79l-266.36 -1200.54c-60.03,-262.61 -213.85,-401.42 -528.99,-401.42 -315.14,0 -483.96,138.81 -543.99,401.42l-281.37 1200.54c-18.76,71.28 -56.28,108.79 -146.32,108.79 -93.79,0 -131.31,-41.26 -142.56,-127.55l-176.33 -1545.69 -431.44 0z"/>
  <path id="_4" class="fil0" d="M12901.91 29610.05l0 382.67 1185.53 0c217.59,0 303.88,120.06 303.88,273.87l0 150.07 -941.67 0c-487.71,0 -667.79,210.09 -667.79,570.25 0,375.17 195.08,604.02 664.04,604.02l926.66 0c333.9,0 408.93,-112.55 408.93,-397.68l0 -930.41c0,-375.16 -195.08,-652.79 -690.3,-652.79l-1189.28 0zm1380.61 1594.46l-832.87 0c-198.83,0 -277.62,-93.79 -277.62,-240.11 0,-146.31 75.03,-232.6 285.13,-232.6l934.16 0 0 371.41c0,71.29 -30.01,101.3 -108.8,101.3z"/>
  <path id="_5" class="fil0" d="M15621.87 29610.05c-198.84,0 -277.62,75.04 -277.62,307.64l0 1673.24 397.67 0 0 -1541.93c0,-37.52 15.01,-56.28 48.77,-56.28l649.04 0c416.44,0 596.51,172.58 596.51,483.97l0 1114.24 401.43 0 0 -1114.24c0,-547.75 -326.39,-866.64 -997.94,-866.64l-817.86 0z"/>
  <path id="_6" class="fil0" d="M17996.67 29610.05l0 1980.88 397.67 0 0 -1980.88 -397.67 0zm0 -746.58l0 461.46 401.42 0 0 -461.46 -401.42 0z"/>
  <path id="_7" class="fil0" d="M21039.26 29058.56c-735.32,0 -1144.26,416.43 -1144.26,1268.06 0,847.88 405.18,1264.31 1144.26,1264.31l390.17 0c566.5,0 787.85,-348.9 787.85,-791.6 0,-438.94 -221.35,-716.57 -671.55,-716.57l-607.76 0 0 386.42 562.75 0c206.34,0 311.38,120.06 311.38,322.65 0,206.34 -105.04,356.4 -352.65,356.4l-420.19 0c-491.47,0 -701.56,-243.85 -701.56,-821.61 0,-581.51 213.85,-825.36 701.56,-825.36l1042.96 0 0 -442.7 -1042.96 0z"/>
  <path id="_8" class="fil0" d="M23233.98 29610.05c-390.17,0 -536.49,180.08 -536.49,577.76l0 1403.12 397.68 0 0 -1343.09c0,-172.58 78.79,-255.12 255.11,-255.12l697.81 0 0 -382.67 -814.11 0z"/>
  <path id="_9" class="fil0" d="M25203.6 29610.05c-528.98,0 -859.13,322.65 -859.13,990.44 0,667.8 330.15,990.44 859.13,990.44l416.44 0c525.23,0 859.13,-322.64 859.13,-990.44 0,-667.79 -333.9,-990.44 -859.13,-990.44l-416.44 0zm378.92 382.67c341.4,0 495.22,180.08 495.22,607.77 0,427.69 -153.82,604.02 -495.22,604.02l-341.4 0c-345.15,0 -495.22,-176.33 -495.22,-604.02 0,-427.69 150.07,-607.77 495.22,-607.77l341.4 0z"/>
  <path id="_10" class="fil0" d="M26944.37 29610.05l0 1200.53c0,457.71 292.63,780.35 859.13,780.35l367.66 0c566.5,0 859.13,-322.64 859.13,-780.35l0 -1200.53 -390.17 0 0 1185.53c0,232.6 -168.82,408.93 -483.96,408.93l-322.65 0c-315.13,0 -487.71,-176.33 -487.71,-408.93l0 -1185.53 -401.43 0z"/>
  <path id="_11" class="fil0" d="M30309.61 29610.05c-476.46,0 -727.82,277.63 -727.82,847.88l0 1928.35 397.68 0 0 -795.35 877.89 0c525.23,0 855.38,-322.64 855.38,-990.44 0,-667.79 -330.15,-990.44 -855.38,-990.44l-547.75 0zm-330.14 866.64c0,-341.4 123.8,-483.97 446.45,-483.97l390.17 0c345.15,0 495.22,180.08 495.22,607.77 0,427.69 -150.07,604.02 -495.22,604.02l-836.62 0 0 -727.82z"/>
  <path id="_12" class="fil1 str0" d="M1838.26 29058.56l0 442.7 1316.84 0c240.1,0 348.9,153.81 348.9,337.64 0,176.33 -101.3,348.91 -352.66,348.91l-911.65 0c-277.62,0 -397.68,116.3 -397.68,401.43l0 1001.69 442.7 0 0 -915.41c0,-45.01 22.51,-63.77 63.78,-63.77l787.85 0c592.76,0 814.11,-412.69 814.11,-795.36 0,-405.17 -243.86,-757.83 -814.11,-757.83l-1298.08 0z"/>
  <path id="_13" class="fil1 str0" d="M4303.1 29610.05l0 382.67 1185.53 0c217.59,0 303.88,120.06 303.88,273.87l0 150.07 -941.67 0c-487.71,0 -667.79,210.09 -667.79,570.25 0,375.17 195.08,604.02 664.04,604.02l926.66 0c333.9,0 408.93,-112.55 408.93,-397.68l0 -930.41c0,-375.16 -195.08,-652.79 -690.3,-652.79l-1189.28 0zm1380.61 1594.46l-832.87 0c-198.83,0 -277.62,-93.79 -277.62,-240.11 0,-146.31 75.03,-232.6 285.13,-232.6l934.16 0 0 371.41c0,71.29 -30.01,101.3 -108.8,101.3z"/>
  <path id="_14" class="fil1 str0" d="M6824.22 29610.05l0 382.67 1185.53 0c217.59,0 303.88,120.06 303.88,273.87l0 150.07 -941.67 0c-487.71,0 -667.79,210.09 -667.79,570.25 0,375.17 195.08,604.02 664.04,604.02l926.66 0c333.9,0 408.93,-112.55 408.93,-397.68l0 -930.41c0,-375.16 -195.08,-652.79 -690.3,-652.79l-1189.28 0zm1380.61 1594.46l-832.87 0c-198.83,0 -277.62,-93.79 -277.62,-240.11 0,-146.31 75.03,-232.6 285.13,-232.6l934.16 0 0 371.41c0,71.29 -30.01,101.3 -108.8,101.3z"/>
  <path id="_15" class="fil1 str0" d="M8985.18 29610.05l206.34 1568.2c37.52,273.87 168.83,457.7 536.49,457.7 315.14,0 483.96,-135.06 547.74,-408.93l281.38 -1204.28c15,-67.53 67.53,-97.55 146.31,-97.55 75.03,0 131.31,30.02 146.31,97.55l266.37 1204.28c60.03,273.87 225.1,408.93 532.74,408.93 360.16,0 517.73,-183.83 555.24,-457.7l221.35 -1568.2 -431.44 0 -206.34 1545.69c-11.26,86.29 -45.02,127.55 -135.06,127.55 -90.04,0 -135.06,-37.51 -150.07,-108.79l-266.36 -1200.54c-60.03,-262.61 -213.85,-401.42 -528.99,-401.42 -315.14,0 -483.96,138.81 -543.99,401.42l-281.37 1200.54c-18.76,71.28 -56.28,108.79 -146.32,108.79 -93.79,0 -131.31,-41.26 -142.56,-127.55l-176.33 -1545.69 -431.44 0z"/>
  <path id="_16" class="fil1 str0" d="M12901.91 29610.05l0 382.67 1185.53 0c217.59,0 303.88,120.06 303.88,273.87l0 150.07 -941.67 0c-487.71,0 -667.79,210.09 -667.79,570.25 0,375.17 195.08,604.02 664.04,604.02l926.66 0c333.9,0 408.93,-112.55 408.93,-397.68l0 -930.41c0,-375.16 -195.08,-652.79 -690.3,-652.79l-1189.28 0zm1380.61 1594.46l-832.87 0c-198.83,0 -277.62,-93.79 -277.62,-240.11 0,-146.31 75.03,-232.6 285.13,-232.6l934.16 0 0 371.41c0,71.29 -30.01,101.3 -108.8,101.3z"/>
  <path id="_17" class="fil1 str0" d="M15621.87 29610.05c-198.84,0 -277.62,75.04 -277.62,307.64l0 1673.24 397.67 0 0 -1541.93c0,-37.52 15.01,-56.28 48.77,-56.28l649.04 0c416.44,0 596.51,172.58 596.51,483.97l0 1114.24 401.43 0 0 -1114.24c0,-547.75 -326.39,-866.64 -997.94,-866.64l-817.86 0z"/>
  <path id="_18" class="fil1 str0" d="M17996.67 29610.05l0 1980.88 397.67 0 0 -1980.88 -397.67 0zm0 -746.58l0 461.46 401.42 0 0 -461.46 -401.42 0z"/>
  <path id="_19" class="fil1 str0" d="M21039.26 29058.56c-735.32,0 -1144.26,416.43 -1144.26,1268.06 0,847.88 405.18,1264.31 1144.26,1264.31l390.17 0c566.5,0 787.85,-348.9 787.85,-791.6 0,-438.94 -221.35,-716.57 -671.55,-716.57l-607.76 0 0 386.42 562.75 0c206.34,0 311.38,120.06 311.38,322.65 0,206.34 -105.04,356.4 -352.65,356.4l-420.19 0c-491.47,0 -701.56,-243.85 -701.56,-821.61 0,-581.51 213.85,-825.36 701.56,-825.36l1042.96 0 0 -442.7 -1042.96 0z"/>
  <path id="_20" class="fil1 str0" d="M23233.98 29610.05c-390.17,0 -536.49,180.08 -536.49,577.76l0 1403.12 397.68 0 0 -1343.09c0,-172.58 78.79,-255.12 255.11,-255.12l697.81 0 0 -382.67 -814.11 0z"/>
  <path id="_21" class="fil1 str0" d="M25203.6 29610.05c-528.98,0 -859.13,322.65 -859.13,990.44 0,667.8 330.15,990.44 859.13,990.44l416.44 0c525.23,0 859.13,-322.64 859.13,-990.44 0,-667.79 -333.9,-990.44 -859.13,-990.44l-416.44 0zm378.92 382.67c341.4,0 495.22,180.08 495.22,607.77 0,427.69 -153.82,604.02 -495.22,604.02l-341.4 0c-345.15,0 -495.22,-176.33 -495.22,-604.02 0,-427.69 150.07,-607.77 495.22,-607.77l341.4 0z"/>
  <path id="_22" class="fil1 str0" d="M26944.37 29610.05l0 1200.53c0,457.71 292.63,780.35 859.13,780.35l367.66 0c566.5,0 859.13,-322.64 859.13,-780.35l0 -1200.53 -390.17 0 0 1185.53c0,232.6 -168.82,408.93 -483.96,408.93l-322.65 0c-315.13,0 -487.71,-176.33 -487.71,-408.93l0 -1185.53 -401.43 0z"/>
  <path id="_23" class="fil1 str0" d="M30309.61 29610.05c-476.46,0 -727.82,277.63 -727.82,847.88l0 1928.35 397.68 0 0 -795.35 877.89 0c525.23,0 855.38,-322.64 855.38,-990.44 0,-667.79 -330.15,-990.44 -855.38,-990.44l-547.75 0zm-330.14 866.64c0,-341.4 123.8,-483.97 446.45,-483.97l390.17 0c345.15,0 495.22,180.08 495.22,607.77 0,427.69 -150.07,604.02 -495.22,604.02l-836.62 0 0 -727.82z"/>
  <path class="fil2 str1" d="M8266.42 6674.99c-303.04,-355.97 -2370.08,1100.76 -2686.02,1389.66 -4696.53,4294.71 -3394.37,11802.1 2112.38,13947.59 2843.19,1107.74 5934.73,309.66 8199.12,-1645.51 634.66,-548.01 306.75,-601.18 -109.51,-1152.47 -1397.6,-1850.98 -379.11,-1858.79 -1860.46,-703.9 -4688.75,3655.51 -9886.27,-905.13 -8268.38,-5880.5 308.03,-947.27 950.09,-1966.32 1738.02,-2583.25 799.27,-625.8 543.29,-566.25 608.61,-1565.42 25.69,-393.16 286.93,-1617.54 266.24,-1806.2z"/>
  <path class="fil3 str2" d="M25314.13 22095.41c504.6,231.84 2304.82,-1046.75 2724.35,-1418.2 788.15,-697.82 1425.5,-1490.24 1883.81,-2445.1 1065.26,-2219.43 1113.96,-4919.48 187.83,-7195.26 -1854.01,-4555.89 -7276.64,-5886.55 -11343.4,-3335.03 -379.72,238.26 -891.3,640.62 -1214.82,950.52 -534.23,511.74 -117.82,650.96 264.78,1180.53 1242.13,1719.24 277.74,1634.99 1895.76,410.52 1844.23,-1395.71 4535.46,-1705.54 6396.61,-159.83 2792.17,2318.93 2673.79,6507.47 -51.29,8778.69 -873.31,727.88 -528.09,327.75 -577.43,1491.44 -12.3,290.24 -227.22,1610.84 -166.2,1741.72z"/>
  <path class="fil2 str1" d="M24108.99 5846.11c204.85,-454.48 -1137.06,-2207.97 -1469.61,-2598.78 -529.52,-622.28 -1708.21,-1427.26 -2465.04,-1747.94 -2242.08,-950.02 -4720.02,-969.16 -6949.34,34.54 -1736.28,781.72 -3407.24,2580.7 -4066.46,4363.63 -831.89,2249.88 -699.4,4767.98 496.34,6859.89 1283.67,2245.75 1474.64,1517.27 2081.75,1124.69 1785.64,-1154.74 1500.2,-418.3 529.27,-1906.37 -1310.36,-2008.3 -1341.36,-4405.04 80.63,-6367.01 1993.01,-2749.8 6401.07,-2805.44 8589.35,-257.81 624,726.44 260.63,777.61 1289.22,635.76 366.17,-50.5 1722.92,-62.66 1883.89,-140.6z"/>
  <path class="fil2 str1" d="M11840.73 9205.83c306.59,217.56 709.56,316.52 1065.44,535.33 1041.91,640.55 1846.83,1174.94 2454.97,2316.97 412.03,773.74 548.63,1337.1 1155.09,2038.41 1117.84,1292.68 2712.56,2089.32 4435.87,1432.25 2707.29,-1032.25 4003.78,-5260.99 3810.01,-5605.69 -353.18,-312.65 -2070.29,-395.89 -2484.59,-192.18 -197.35,97.05 -329.47,778.68 -417.19,1013 -281.25,751.5 -1135.6,2153.2 -1868.36,2334.59 -757.48,187.49 -1374.26,-365.93 -1697.07,-989.28 -361.19,-697.57 -481.94,-1200.6 -954.19,-1887.03 -395.57,-575 -786.54,-1029.26 -1308,-1487.14 -651.5,-572.07 -2753.7,-2040.93 -3596.51,-1958.49 -413.35,318.68 -570.32,1930.55 -595.47,2449.26z"/>
  <path class="fil2 str1" d="M8846.34 18966.39c370.17,351.46 2237.73,429.19 2604.4,147.71 84.37,-64.77 450.58,-817.21 583.4,-1012.3 468.78,-688.56 1946.46,-2093.83 2642.59,-1982.7 828.37,132.26 544.93,2937.89 4185.7,5137.53 387.66,234.21 1820.32,916.19 2221.5,891.71 451.47,-27.53 609.41,-2064.73 422.67,-2461.94 -162.33,-135.29 -884.51,-413.91 -1172.36,-588.97 -334.48,-203.46 -720.07,-486.06 -1006.16,-754.19 -1682.08,-1576.44 -909.44,-1789.21 -1305.78,-2222.42 -177.96,-194.52 -930.79,-436.48 -1927.28,-1600.77 -271.5,-317.19 -510.38,-683.64 -727.01,-1038.7 -123.7,-202.72 -454.61,-995.17 -562.52,-1069.03 -129.44,57.19 -624.08,602.87 -776.47,739.4 -411.72,368.86 -1904.37,1163.87 -2867.75,1916.85 -942.19,736.42 -2451.12,3037 -2314.93,3897.82z"/>
  <path class="fil3 str2" d="M17166.06 25512.9c752.7,600.91 -91.52,2330.09 823.72,2521.05 5330.36,-555.75 8667.25,-6643.88 5859.02,-11251.02 -190.12,-311.92 -941.25,-1374.09 -1239.7,-1469.79 -346.49,110.93 -768.08,529.55 -1369.75,721.75 -845.12,269.98 -1537.34,152.7 -1764.13,230.73 20.37,99.61 1001.06,754.7 1168.57,878.61 288.57,213.46 757.85,830.89 945.23,1151.37 1659.94,2838.86 -298.86,6680.68 -4422.96,7217.3z"/>
  <path class="fil2 str1" d="M17989.78 28033.95c-1124.76,-1198.86 348.42,-1610.41 -823.72,-2521.05 -1544.42,168.31 -3133.17,-403.65 -4244.57,-1503.59 -1420.51,-1405.82 -28.14,-1019.56 -2271.81,-885.82 -386.94,23.06 -1160.59,-106.64 -1399.81,-68.06 -27.77,444.57 903.6,1820.92 1207.72,2222.68 483.24,638.45 1161.75,1191.83 1846.4,1627.55 1809.36,1151.54 3596.17,1286.85 5685.79,1128.29z"/>
 </g>
</svg>
